# This file uses centimeters as units for non-parametric coordinates.

mtllib Book.mtl
g default
v 2.967031 1.276037 4.045473
v 4.348666 1.276037 3.666379
v 2.943738 1.067387 3.960577
v 2.955384 1.084157 4.003026
v 2.963910 1.129975 4.034098
v 2.967031 1.192564 4.045473
v 4.325373 1.067387 3.581484
v 4.348666 1.192564 3.666379
v 4.345545 1.129975 3.655005
v 4.337019 1.084157 3.623931
v 2.943738 1.484687 3.960577
v 2.967031 1.359509 4.045473
v 2.963910 1.422098 4.034098
v 2.955384 1.467916 4.003025
v 4.325373 1.484687 3.581484
v 4.337019 1.467916 3.623932
v 4.345545 1.422098 3.655005
v 4.348666 1.359509 3.666379
v 2.956599 1.276037 4.007453
v 2.937314 1.122052 3.937168
v 2.947109 1.134094 3.972867
v 2.953975 1.165595 3.997888
v 2.956599 1.210537 4.007453
v 4.318949 1.122052 3.558074
v 4.338234 1.276037 3.628360
v 4.338234 1.210537 3.628360
v 4.335609 1.165595 3.618795
v 4.328744 1.134094 3.593772
v 2.937314 1.430022 3.937168
v 2.956599 1.341537 4.007453
v 2.953975 1.386479 3.997888
v 2.947109 1.417979 3.972866
v 4.318949 1.430022 3.558074
v 4.328744 1.417979 3.593773
v 4.335609 1.386479 3.618795
v 4.338234 1.341537 3.628360
v 2.749830 1.430022 3.118299
v 4.062278 1.430022 2.758189
v 4.062278 1.122051 2.758189
v 2.749830 1.122051 3.118299
v 2.991194 1.276037 3.997962
v 2.971909 1.122052 3.927676
v 2.981704 1.134094 3.963375
v 2.988570 1.165595 3.988396
v 2.991194 1.210537 3.997962
v 4.284354 1.122052 3.567566
v 4.303639 1.276037 3.637852
v 4.303639 1.210537 3.637852
v 4.301014 1.165595 3.628287
v 4.294149 1.134094 3.603264
v 2.971909 1.430022 3.927676
v 2.991194 1.341537 3.997962
v 2.988570 1.386479 3.988396
v 2.981704 1.417979 3.963374
v 4.284354 1.430022 3.567566
v 4.294149 1.417979 3.603265
v 4.301014 1.386479 3.628287
v 4.303639 1.341537 3.637852
v 4.096401 1.276037 2.882558
v 4.065469 1.168258 2.769822
v 4.068187 1.221507 2.779731
v 4.069100 1.276037 2.783060
v 4.068187 1.330567 2.779731
v 4.065469 1.383815 2.769822
v 2.783957 1.276037 3.242668
v 2.753024 1.383815 3.129931
v 2.755743 1.330567 3.139841
v 2.756656 1.276037 3.143169
v 2.755743 1.221507 3.139841
v 2.753024 1.168258 3.129931
v 2.762236 1.484687 3.057395
v 2.735767 1.484687 3.087944
v 2.723004 1.484687 3.126296
v 2.725889 1.484687 3.166613
v 2.798380 1.484687 3.039300
v 2.725889 1.438893 3.166613
v 2.723004 1.439333 3.126296
v 2.735767 1.439707 3.087944
v 2.762236 1.439956 3.057395
v 2.798380 1.440043 3.039300
v 4.089430 1.484687 2.751376
v 4.058881 1.484687 2.724906
v 4.020529 1.484687 2.712144
v 3.980211 1.484687 2.715030
v 4.107524 1.484687 2.787520
v 3.980211 1.440043 2.715030
v 4.020529 1.439956 2.712144
v 4.058881 1.439707 2.724906
v 4.089430 1.439333 2.751376
v 4.107524 1.438893 2.787520
v 4.020529 1.067387 2.712144
v 4.058881 1.067387 2.724906
v 4.089430 1.067387 2.751376
v 4.107524 1.067387 2.787520
v 3.980211 1.067387 2.715030
v 4.107524 1.113180 2.787520
v 4.089430 1.112740 2.751376
v 4.058881 1.112367 2.724906
v 4.020529 1.112118 2.712144
v 3.980211 1.112030 2.715030
v 2.723004 1.067387 3.126296
v 2.735767 1.067387 3.087944
v 2.762236 1.067387 3.057395
v 2.798380 1.067387 3.039300
v 2.725889 1.067387 3.166613
v 2.798380 1.112030 3.039300
v 2.762236 1.112118 3.057395
v 2.735767 1.112367 3.087944
v 2.723004 1.112740 3.126296
v 2.725889 1.113180 3.166613
vt 0.430953 0.914033
vt 0.430801 0.829989
vt 0.434796 0.829824
vt 0.434962 0.914198
vt 0.438805 0.829989
vt 0.438957 0.914033
vt 0.501966 0.915109
vt 0.500773 0.827604
vt 0.402393 0.936125
vt 0.467314 0.935494
vt 0.467230 0.926888
vt 0.402309 0.927519
vt 0.367792 0.828910
vt 0.368984 0.916416
vt 0.427904 0.913835
vt 0.427736 0.830187
vt 0.425024 0.913860
vt 0.424857 0.830156
vt 0.422348 0.914248
vt 0.422200 0.829779
vt 0.447558 0.914242
vt 0.444901 0.913865
vt 0.444734 0.830162
vt 0.447409 0.829774
vt 0.442022 0.913834
vt 0.441854 0.830187
vt 0.510044 0.930785
vt 0.472711 0.931140
vt 0.424020 0.919407
vt 0.426261 0.918869
vt 0.428649 0.918584
vt 0.431277 0.918529
vt 0.362990 0.926154
vt 0.396912 0.931873
vt 0.359579 0.932228
vt 0.431128 0.825529
vt 0.428533 0.825448
vt 0.426146 0.825114
vt 0.506633 0.936859
vt 0.438631 0.918493
vt 0.441226 0.918573
vt 0.443613 0.918907
vt 0.445737 0.824615
vt 0.443497 0.825153
vt 0.441110 0.825438
vt 0.438481 0.825492
vt 0.504623 0.909502
vt 0.502153 0.907868
vt 0.502198 0.835509
vt 0.504281 0.833245
vt 0.365135 0.834517
vt 0.367605 0.836152
vt 0.367559 0.908511
vt 0.365476 0.910775
vt 0.373006 0.916798
vt 0.374359 0.914453
vt 0.420924 0.916915
vt 0.425745 0.916786
vt 0.428414 0.916454
vt 0.431258 0.916408
vt 0.434955 0.916469
vt 0.373539 0.829889
vt 0.371520 0.827799
vt 0.420764 0.827124
vt 0.431101 0.827620
vt 0.434803 0.827553
vt 0.428250 0.827566
vt 0.425583 0.827218
vt 0.496220 0.914131
vt 0.498239 0.916220
vt 0.448994 0.916897
vt 0.438657 0.916402
vt 0.441508 0.916456
vt 0.444176 0.916804
vt 0.496751 0.827223
vt 0.495399 0.829567
vt 0.446351 0.826612
vt 0.444013 0.827236
vt 0.441343 0.827568
vt 0.438500 0.827614
vt 0.402160 0.933979
vt 0.467505 0.933354
vt 0.402084 0.931818
vt 0.467539 0.931195
vt 0.402118 0.929659
vt 0.467463 0.929034
vt 0.498277 0.913267
vt 0.499953 0.914679
vt 0.500112 0.911758
vt 0.501423 0.913061
vt 0.501539 0.909963
vt 0.502783 0.911242
vt 0.501000 0.833261
vt 0.502192 0.831668
vt 0.499571 0.831319
vt 0.500643 0.829845
vt 0.497794 0.830021
vt 0.498920 0.828374
vt 0.371482 0.830752
vt 0.369806 0.829340
vt 0.369646 0.832261
vt 0.368336 0.830958
vt 0.368219 0.834056
vt 0.366975 0.832778
vt 0.368758 0.910759
vt 0.367565 0.912353
vt 0.370186 0.912701
vt 0.369115 0.914176
vt 0.371964 0.913999
vt 0.370838 0.915646
vt 0.434787 0.825465
vt 0.359604 0.934797
vt 0.360092 0.936556
vt 0.361338 0.937780
vt 0.363105 0.938236
vt 0.402674 0.937996
vt 0.449014 0.919014
vt 0.508390 0.936369
vt 0.509613 0.935122
vt 0.510068 0.933354
vt 0.434971 0.918557
vt 0.467068 0.937375
vt 0.420744 0.825007
vt 0.361233 0.926643
vt 0.360010 0.927891
vt 0.359555 0.929659
vt 0.402555 0.925638
vt 0.510019 0.928216
vt 0.509531 0.926457
vt 0.508285 0.925233
vt 0.506519 0.924777
vt 0.466949 0.925017
vt 0.374343 0.916677
vt 0.365388 0.908509
vt 0.365434 0.836149
vt 0.373539 0.827662
vt 0.495414 0.827344
vt 0.504369 0.835512
vt 0.504324 0.907870
vt 0.496220 0.916358
vt 0.361615 0.912504
vt 0.371966 0.918827
vt 0.371141 0.825525
vt 0.361666 0.832147
vt 0.508142 0.831517
vt 0.497791 0.825193
vt 0.498618 0.918495
vt 0.508092 0.911872
vt 0.448833 0.827107
vt 0.448862 0.824988
vt 0.446507 0.917411
vt 0.445891 0.919470
vt 0.423251 0.826609
vt 0.423868 0.824551
vt 0.423406 0.917410
vt 0.420896 0.919034
vn 0.263742 -0.080491 0.961229
vn 0.263742 -0.080491 0.961229
vn 0.264601 0.000000 0.964358
vn 0.264601 0.000000 0.964358
vn 0.263742 0.080491 0.961229
vn 0.263742 0.080491 0.961229
vn -0.256020 -0.252589 -0.933088
vn -0.256020 -0.252589 -0.933088
vn -0.258169 -0.219146 -0.940916
vn -0.258169 -0.219146 -0.940916
vn -0.258169 0.219146 -0.940916
vn -0.258169 0.219146 -0.940916
vn -0.256021 0.252590 -0.933087
vn -0.256021 0.252590 -0.933087
vn 0.245163 -0.376201 0.893515
vn 0.245163 -0.376201 0.893514
vn 0.216439 -0.575241 0.788829
vn 0.216440 -0.575241 0.788829
vn 0.094208 -0.934472 0.343346
vn 0.004586 -0.999850 0.016715
vn 0.004586 -0.999850 0.016715
vn 0.094208 -0.934472 0.343346
vn 0.004586 0.999850 0.016715
vn 0.094208 0.934471 0.343350
vn 0.094208 0.934471 0.343350
vn 0.004586 0.999850 0.016715
vn 0.216439 0.575244 0.788827
vn 0.245163 0.376202 0.893514
vn 0.245163 0.376202 0.893514
vn 0.216439 0.575244 0.788828
vn -0.964358 0.000000 0.264601
vn -0.964358 0.000000 0.264601
vn -0.964358 0.000008 0.264601
vn -0.964358 0.000008 0.264601
vn -0.964358 0.000008 0.264601
vn -0.964358 0.000008 0.264601
vn -0.964358 0.000008 0.264601
vn -0.964358 0.000008 0.264601
vn 0.964358 0.000006 -0.264601
vn 0.964358 0.000006 -0.264601
vn 0.964358 0.000006 -0.264601
vn 0.964358 0.000000 -0.264600
vn 0.964358 0.000000 -0.264600
vn 0.964358 0.000006 -0.264601
vn 0.964358 0.000006 -0.264601
vn 0.964358 0.000006 -0.264601
vn -0.964358 -0.000008 0.264601
vn -0.964358 -0.000008 0.264601
vn -0.964358 -0.000008 0.264601
vn -0.964358 -0.000008 0.264601
vn -0.964358 -0.000008 0.264601
vn -0.964358 -0.000008 0.264601
vn 0.964358 -0.000006 -0.264600
vn 0.964358 -0.000006 -0.264600
vn 0.964358 -0.000006 -0.264600
vn 0.964358 -0.000006 -0.264600
vn 0.964358 -0.000006 -0.264600
vn 0.964358 -0.000006 -0.264600
vn -0.270620 0.000000 -0.962686
vn -0.270612 0.000000 -0.962689
vn -0.258579 0.000000 -0.965990
vn -0.258571 0.000000 -0.965992
vn -0.258571 0.000000 -0.965992
vn -0.258579 0.000000 -0.965990
vn -0.270611 0.000000 -0.962689
vn -0.270619 0.000000 -0.962686
vn -0.966527 0.000000 0.256566
vn -0.966556 0.000000 0.256457
vn -0.964358 -0.000000 0.264601
vn -0.964358 -0.000000 0.264601
vn -0.964358 -0.000003 0.264600
vn -0.964358 -0.000003 0.264600
vn -0.964358 -0.000001 0.264601
vn -0.964358 -0.000002 0.264600
vn -0.964359 -0.000002 0.264597
vn -0.964359 -0.000001 0.264597
vn -0.964359 0.000000 0.264597
vn -0.964359 0.000000 0.264597
vn 0.964358 -0.000003 -0.264601
vn 0.962092 -0.000002 -0.272726
vn 0.962122 -0.000002 -0.272618
vn 0.964358 -0.000002 -0.264601
vn 0.964358 0.000000 -0.264603
vn 0.964358 0.000000 -0.264602
vn 0.964358 0.000000 -0.264602
vn 0.964358 0.000000 -0.264603
vn 0.964358 0.000000 -0.264601
vn 0.964358 0.000000 -0.264601
vn 0.964359 -0.000006 -0.264599
vn 0.964359 -0.000006 -0.264599
vn -0.964358 -0.000002 0.264600
vn -0.966556 -0.000002 0.256456
vn -0.966527 -0.000002 0.256565
vn -0.964358 -0.000002 0.264600
vn -0.964359 0.000002 0.264597
vn -0.964359 0.000001 0.264597
vn -0.964359 0.000001 0.264599
vn -0.964359 0.000002 0.264599
vn -0.964358 0.000000 0.264600
vn -0.964358 0.000000 0.264600
vn 0.962122 0.000000 -0.272618
vn 0.962092 0.000000 -0.272726
vn 0.964358 0.000000 -0.264601
vn 0.964358 0.000000 -0.264601
vn 0.964359 0.000003 -0.264598
vn 0.964359 0.000003 -0.264599
vn 0.964357 0.000004 -0.264604
vn 0.964357 0.000003 -0.264603
vn 0.964358 0.000000 -0.264602
vn 0.964358 0.000000 -0.264602
vn -0.121074 0.992553 0.013412
vn -0.081851 0.950951 -0.298316
vn -0.081851 0.950951 -0.298316
vn -0.121074 0.992553 0.013411
vn -0.204235 0.635771 -0.744368
vn -0.204235 0.635771 -0.744368
vn -0.204235 0.635771 -0.744368
vn -0.204235 0.635771 -0.744368
vn -0.258379 0.215516 -0.941697
vn -0.263531 0.089450 -0.960495
vn -0.263531 0.089450 -0.960495
vn -0.258379 0.215516 -0.941697
vn -0.264588 0.000000 -0.964362
vn -0.264588 0.000000 -0.964362
vn 0.110961 0.992554 -0.050254
vn 0.120544 0.991943 -0.038968
vn 0.004230 0.992179 -0.124749
vn 0.110961 0.992553 -0.050254
vn -0.264591 0.000000 -0.964361
vn -0.263534 0.089451 -0.960494
vn -0.263534 0.089450 -0.960494
vn -0.264591 0.000000 -0.964361
vn -0.258377 0.215517 -0.941697
vn -0.258377 0.215517 -0.941697
vn -0.204228 0.635787 -0.744356
vn -0.204228 0.635787 -0.744356
vn -0.204228 0.635787 -0.744356
vn -0.204228 0.635787 -0.744356
vn -0.081852 0.950949 -0.298321
vn -0.081852 0.950949 -0.298321
vn -0.121074 -0.992553 0.013411
vn -0.123556 -0.991942 0.028008
vn -0.067303 -0.992179 -0.105123
vn -0.121074 -0.992553 0.013410
vn -0.263531 -0.089450 -0.960495
vn -0.263531 -0.089450 -0.960495
vn -0.258379 -0.215516 -0.941697
vn -0.258379 -0.215516 -0.941697
vn -0.204233 -0.635785 -0.744356
vn -0.204233 -0.635785 -0.744356
vn -0.204233 -0.635785 -0.744356
vn -0.204233 -0.635785 -0.744356
vn -0.081856 -0.950946 -0.298332
vn -0.081856 -0.950946 -0.298332
vn 0.110961 -0.992553 -0.050254
vn -0.081850 -0.950950 -0.298321
vn -0.081850 -0.950950 -0.298321
vn 0.110961 -0.992553 -0.050254
vn -0.204232 -0.635771 -0.744368
vn -0.204232 -0.635772 -0.744368
vn -0.204232 -0.635771 -0.744368
vn -0.204232 -0.635772 -0.744368
vn -0.258379 -0.215517 -0.941697
vn -0.263531 -0.089451 -0.960495
vn -0.263531 -0.089451 -0.960495
vn -0.258379 -0.215517 -0.941697
vn -0.262481 -0.126344 -0.956630
vn -0.262481 -0.126344 -0.956630
vn -0.264601 -0.000000 -0.964358
vn -0.264601 -0.000000 -0.964358
vn -0.262481 0.126344 -0.956630
vn -0.262481 0.126344 -0.956630
vn 0.964356 0.000004 -0.264608
vn 0.964357 0.000000 -0.264603
vn 0.964356 -0.000004 -0.264608
vn -0.964357 0.000011 0.264605
vn -0.964358 -0.000000 0.264601
vn -0.964357 -0.000011 0.264605
vn -0.041481 -0.987696 -0.150787
vn -0.041279 -0.987696 -0.150842
vn 0.004231 -0.992179 -0.124749
vn 0.120544 -0.991943 -0.038968
vn -0.041279 0.987696 -0.150842
vn -0.041481 0.987696 -0.150787
vn -0.067303 0.992179 -0.105123
vn -0.123556 0.991942 0.028008
vn -0.992320 0.000000 -0.123699
vn -0.992476 0.000000 -0.122436
vn -0.869342 0.000000 -0.494211
vn -0.869823 0.000000 -0.493364
vn -0.613796 0.000000 -0.789464
vn -0.614212 0.000000 -0.789141
vn 0.124934 0.000000 -0.992165
vn 0.125457 0.000000 -0.992099
vn 0.495398 0.000000 -0.868666
vn 0.496244 0.000000 -0.868183
vn 0.790243 0.000000 -0.612794
vn 0.791023 0.000000 -0.611787
vn 0.790243 0.000000 -0.612794
vn 0.791023 0.000000 -0.611787
vn 0.495399 0.000000 -0.868666
vn 0.496245 0.000000 -0.868183
vn 0.124934 0.000000 -0.992165
vn 0.125456 0.000000 -0.992099
vn -0.613795 0.000000 -0.789465
vn -0.614211 0.000000 -0.789142
vn -0.869343 0.000000 -0.494210
vn -0.869824 0.000000 -0.493363
vn -0.992320 0.000000 -0.123699
vn -0.992476 0.000000 -0.122436
vn -0.336568 -0.941072 -0.033260
vn -0.255852 -0.948998 -0.184233
vn -0.104771 -0.977915 -0.180845
vn 0.000000 1.000000 -0.000000
vn 0.000000 1.000000 -0.000000
vn 0.000000 1.000000 -0.000000
vn 0.000000 1.000000 -0.000000
vn 0.000000 1.000000 -0.000000
vn 0.000000 1.000000 -0.000000
vn 0.000000 1.000000 -0.000000
vn 0.000000 1.000000 -0.000000
vn 0.000000 1.000000 -0.000000
vn 0.000000 1.000000 -0.000000
vn -0.002197 -0.977917 -0.208980
vn 0.126008 -0.948998 -0.289008
vn 0.272449 -0.941079 -0.200355
vn 0.272449 0.941080 -0.200351
vn 0.126009 0.948997 -0.289010
vn -0.002197 0.977917 -0.208984
vn 0.000000 -1.000000 0.000000
vn 0.000000 -1.000000 0.000000
vn 0.000000 -1.000000 0.000000
vn 0.000000 -1.000000 0.000000
vn 0.000000 -1.000000 0.000000
vn 0.000000 -1.000000 0.000000
vn 0.000000 -1.000000 0.000000
vn 0.000000 -1.000000 0.000000
vn 0.000000 -1.000000 0.000000
vn 0.000000 -1.000000 0.000000
vn -0.104771 0.977916 -0.180842
vn -0.255855 0.948997 -0.184235
vn -0.336567 0.941072 -0.033258
s 1
g Book Books
usemtl lambert11SG
f 6/1/1 8/2/2 2/3/3 1/4/4
f 1/4/4 2/3/3 18/5/5 12/6/6
s 2
usemtl lambert13SG
f 37/122/7 38/116/8 64/9/9 66/10/10
f 70/11/11 60/12/12 39/127/13 40/132/14
s 1
usemtl lambert11SG
f 6/1/1 5/15/15 9/16/16 8/2/2
f 5/15/15 4/17/17 10/18/18 9/16/16
s 4
f 4/17/19 3/19/20 7/20/21 10/18/22
s 5
f 11/21/23 14/22/24 16/23/25 15/24/26
s 1
f 14/22/27 13/25/28 17/26/29 16/23/30
f 13/25/28 12/6/6 18/5/5 17/26/29
s 6
usemtl lambert13SG
f 41/27/31 65/28/32 70/11/33 40/132/34 42/131/35 43/130/36 44/129/37 45/128/38
s 7
f 46/33/39 39/127/40 60/12/41 59/34/42 47/35/43 48/126/44 49/125/45 50/124/46
s 6
f 51/39/47 37/122/48 66/10/49 65/28/32 41/27/31 52/120/50 53/119/51 54/118/52
s 7
f 47/35/43 59/34/42 64/9/53 38/116/54 55/115/55 56/114/56 57/113/57 58/112/58
s 8
usemtl lambert11SG
f 80/139/59 75/48/60 84/49/61 86/138/62
f 100/135/63 95/52/64 104/53/65 106/134/66
f 110/133/67 105/56/68 3/19/69 20/57/70
f 3/19/69 4/17/71 21/58/72 20/155/70
f 4/17/71 5/15/73 22/59/74 21/58/72
f 5/15/73 6/1/75 23/60/76 22/59/74
f 6/1/75 1/4/77 19/61/78 23/60/76
f 7/20/79 94/62/80 96/136/81 24/64/82
f 2/3/83 8/2/84 26/65/85 25/66/86
f 8/2/84 9/16/87 27/67/88 26/65/85
f 9/16/87 10/18/89 28/68/90 27/67/88
f 10/18/89 7/20/79 24/153/82 28/68/90
f 11/21/91 74/69/92 76/140/93 29/71/94
f 1/4/77 12/6/95 30/72/96 19/61/78
f 12/6/95 13/25/97 31/73/98 30/72/96
f 13/25/97 14/22/99 32/74/100 31/73/98
f 14/22/99 11/21/91 29/151/94 32/74/100
f 90/137/101 85/76/102 15/24/103 33/149/104
f 15/24/103 16/23/105 34/78/106 33/77/104
f 16/23/105 17/26/107 35/79/108 34/78/106
f 17/26/107 18/5/109 36/80/110 35/79/108
f 18/5/109 2/3/83 25/66/86 36/80/110
s 15
f 20/155/111 21/58/112 43/30/113 42/29/114
s off
f 21/58/115 22/59/116 44/31/117 43/30/118
s 16
f 22/59/119 23/60/120 45/32/121 44/31/122
f 23/60/120 19/61/123 41/121/124 45/32/121
s 15
f 24/64/125 96/136/126 39/143/127 46/123/128
s 18
f 25/66/129 26/65/130 48/36/131 47/111/132
f 26/65/130 27/67/133 49/37/134 48/36/131
s off
f 27/67/135 28/68/136 50/38/137 49/37/138
s 15
f 28/68/139 24/153/125 46/154/128 50/38/140
s 19
f 29/71/141 76/140/142 37/147/143 51/117/144
s 16
f 19/61/123 30/72/145 52/40/146 41/121/124
f 30/72/145 31/73/147 53/41/148 52/40/146
s off
f 31/73/149 32/74/150 54/42/151 53/41/152
s 19
f 32/74/153 29/151/141 51/152/144 54/42/154
f 33/77/155 34/78/156 56/44/157 55/43/158
s off
f 34/78/159 35/79/160 57/45/161 56/44/162
s 18
f 35/79/163 36/80/164 58/46/165 57/45/166
f 36/80/164 25/66/129 47/111/132 58/46/165
s 2
usemtl lambert13SG
f 64/9/9 63/81/167 67/82/168 66/10/10
f 63/81/167 62/83/169 68/84/170 67/82/168
f 62/83/169 61/85/171 69/86/172 68/84/170
f 61/85/171 60/12/12 70/11/11 69/86/172
s 7
f 59/34/42 60/12/41 61/85/173
f 59/34/42 61/85/173 62/83/174
f 59/34/42 62/83/174 63/81/175
f 59/34/42 63/81/175 64/9/53
s 6
f 65/28/32 66/10/49 67/82/176
f 65/28/32 67/82/176 68/84/177
f 65/28/32 68/84/177 69/86/178
f 65/28/32 69/86/178 70/11/33
s 19
usemtl lambert11SG
f 37/148/143 80/139/179 86/138/180 38/145/181
f 38/146/181 90/137/182 33/149/155 55/150/158
s 15
f 39/144/127 100/135/183 106/134/184 40/141/185
f 40/142/185 110/133/186 20/57/111 42/156/114
s 8
f 74/69/92 73/87/187 77/88/188 76/70/93
f 73/87/187 72/89/189 78/90/190 77/88/188
f 72/89/189 71/91/191 79/92/192 78/90/190
f 71/91/191 75/48/60 80/47/59 79/92/192
f 84/49/61 83/93/193 87/94/194 86/50/62
f 83/93/193 82/95/195 88/96/196 87/94/194
f 82/95/195 81/97/197 89/98/198 88/96/196
f 81/97/197 85/76/102 90/75/101 89/98/198
f 94/62/80 93/99/199 97/100/200 96/63/81
f 93/99/199 92/101/201 98/102/202 97/100/200
f 92/101/201 91/103/203 99/104/204 98/102/202
f 91/103/203 95/52/64 100/51/63 99/104/204
f 104/53/65 103/105/205 107/106/206 106/54/66
f 103/105/205 102/107/207 108/108/208 107/106/206
f 102/107/207 101/109/209 109/110/210 108/108/208
f 101/109/209 105/56/68 110/55/67 109/110/210
s 19
f 37/7/143 76/70/142 77/88/211
f 37/7/143 77/88/211 78/90/212
f 37/7/143 78/90/212 79/92/213
f 37/7/143 79/92/213 80/47/179
s 5
f 81/97/214 82/95/215 83/93/216 84/49/217 75/48/218 71/91/219 72/89/220 73/87/221 74/69/222 11/21/23 15/24/26 85/76/223
s 19
f 38/8/181 86/50/180 87/94/224
f 38/8/181 87/94/224 88/96/225
f 38/8/181 88/96/225 89/98/226
f 38/8/181 89/98/226 90/75/182
s 15
f 39/13/127 96/63/126 97/100/227
f 39/13/127 97/100/227 98/102/228
f 39/13/127 98/102/228 99/104/229
f 39/13/127 99/104/229 100/51/183
s 4
f 101/109/230 102/107/231 103/105/232 104/53/233 95/52/234 91/103/235 92/101/236 93/99/237 94/62/238 7/20/21 3/19/20 105/56/239
s 15
f 40/14/185 106/54/184 107/106/240
f 40/14/185 107/106/240 108/108/241
f 40/14/185 108/108/241 109/110/242
f 40/14/185 109/110/242 110/55/186
